STARTFONT 2.1
COMMENT This font is still under development.
COMMENT You can use, copy, modify, distribute this file for free.
COMMENT
COMMENT 94.09.14 created by Takahashi N. <ntakahas@etl.go.jp>
COMMENT  - Upper half contains IPA for English, French, German, and Italian.
COMMENT
FONT -ETL-Fixed-Medium-R-Normal--14-140-72-72-C-70-MuleIPA-1
SIZE 14 72 72
FONTBOUNDINGBOX 7 14 0 -2
STARTPROPERTIES 18
FONTNAME_REGISTRY ""
FOUNDRY "ETL"
FAMILY_NAME "Fixed"
WEIGHT_NAME "Medium"
SLANT "R"
SETWIDTH_NAME "Normal"
ADD_STYLE_NAME ""
PIXEL_SIZE 14
POINT_SIZE 140
RESOLUTION_X 72
RESOLUTION_Y 72
SPACING "C"
AVERAGE_WIDTH 70
CHARSET_REGISTRY "MuleIPA"
CHARSET_ENCODING "1"
DEFAULT_CHAR 255
FONT_DESCENT 2
FONT_ASCENT 12
ENDPROPERTIES
CHARS 96
STARTCHAR unrounded front close
ENCODING 160
SWIDTH 500 0
DWIDTH 7 0
BBX 7 14 0 -2
BITMAP
00
00
10
10
00
30
10
10
10
10
10
7c
00
00
ENDCHAR
STARTCHAR unrounded front/central close/close-mid
ENCODING 161
SWIDTH 500 0
DWIDTH 7 0
BBX 7 14 0 -2
BITMAP
00
00
00
00
00
7c
10
10
10
10
10
7c
00
00
ENDCHAR
STARTCHAR unrounded front close-mid
ENCODING 162
SWIDTH 500 0
DWIDTH 7 0
BBX 7 14 0 -2
BITMAP
00
00
00
00
00
3c
42
42
7e
40
42
3c
00
00
ENDCHAR
STARTCHAR unrounded front open-mid
ENCODING 163
SWIDTH 500 0
DWIDTH 7 0
BBX 7 14 0 -2
BITMAP
00
00
00
00
00
3c
42
40
3c
40
42
3c
00
00
ENDCHAR
STARTCHAR unrounded front open-mid/open
ENCODING 164
SWIDTH 500 0
DWIDTH 7 0
BBX 7 14 0 -2
BITMAP
00
00
00
00
00
3c
4a
0a
3e
48
48
3e
00
00
ENDCHAR
STARTCHAR unrounded front open
ENCODING 165
SWIDTH 500 0
DWIDTH 7 0
BBX 7 14 0 -2
BITMAP
00
00
00
00
00
3c
42
0e
32
42
46
3a
00
00
ENDCHAR
STARTCHAR unrounded central close
ENCODING 166
SWIDTH 500 0
DWIDTH 7 0
BBX 7 14 0 -2
BITMAP
00
00
10
10
00
30
10
10
7c
10
10
7c
00
00
ENDCHAR
STARTCHAR unrounded central close-mid/open-mid
ENCODING 167
SWIDTH 500 0
DWIDTH 7 0
BBX 7 14 0 -2
BITMAP
00
00
00
00
00
3c
42
02
7e
42
42
3c
00
00
ENDCHAR
STARTCHAR unrounded central open-mid/open
ENCODING 168
SWIDTH 500 0
DWIDTH 7 0
BBX 7 14 0 -2
BITMAP
00
00
00
00
00
5c
62
42
4e
70
42
3c
00
00
ENDCHAR
STARTCHAR unrounded back close
ENCODING 169
SWIDTH 500 0
DWIDTH 7 0
BBX 7 14 0 -2
BITMAP
00
00
00
00
00
44
54
54
54
54
54
2c
00
00
ENDCHAR
STARTCHAR unrouned back close-mid
ENCODING 170
SWIDTH 500 0
DWIDTH 7 0
BBX 7 14 0 -2
BITMAP
00
00
00
00
00
42
24
18
24
24
24
18
00
00
ENDCHAR
STARTCHAR unrounded back open-mid
ENCODING 171
SWIDTH 500 0
DWIDTH 7 0
BBX 7 14 0 -2
BITMAP
00
00
00
00
00
10
10
28
28
44
44
44
00
00
ENDCHAR
STARTCHAR unrounded back open
ENCODING 172
SWIDTH 500 0
DWIDTH 7 0
BBX 7 14 0 -2
BITMAP
00
00
00
00
00
3a
46
42
42
42
46
3a
00
00
ENDCHAR
STARTCHAR rounded front close
ENCODING 173
SWIDTH 500 0
DWIDTH 7 0
BBX 7 14 0 -2
BITMAP
00
00
00
00
00
44
44
28
28
10
10
20
20
40
ENDCHAR
STARTCHAR rounded front/central close/close-mid
ENCODING 174
SWIDTH 500 0
DWIDTH 7 0
BBX 7 14 0 -2
BITMAP
00
00
00
00
00
44
44
28
10
10
10
10
00
00
ENDCHAR
STARTCHAR rounded front close-mid
ENCODING 175
SWIDTH 500 0
DWIDTH 7 0
BBX 7 14 0 -2
BITMAP
00
00
00
00
02
3c
46
4a
4a
52
62
3c
40
00
ENDCHAR
STARTCHAR rounded front open-mid
ENCODING 176
SWIDTH 500 0
DWIDTH 7 0
BBX 7 14 0 -2
BITMAP
00
00
00
00
00
36
4a
4a
4e
48
48
36
00
00
ENDCHAR
STARTCHAR rounded front open
ENCODING 177
SWIDTH 500 0
DWIDTH 7 0
BBX 7 14 0 -2
BITMAP
00
00
00
00
00
3e
48
48
4e
48
48
3e
00
00
ENDCHAR
STARTCHAR rounded central close
ENCODING 178
SWIDTH 500 0
DWIDTH 7 0
BBX 7 14 0 -2
BITMAP
00
00
00
00
00
22
22
22
7e
22
26
1a
00
00
ENDCHAR
STARTCHAR rounded central close-mid/open-mid
ENCODING 179
SWIDTH 500 0
DWIDTH 7 0
BBX 7 14 0 -2
BITMAP
00
00
00
00
00
3c
42
42
7e
42
42
3c
00
00
ENDCHAR
STARTCHAR rounded back close
ENCODING 180
SWIDTH 500 0
DWIDTH 7 0
BBX 7 14 0 -2
BITMAP
00
00
00
00
00
42
42
42
42
42
46
3a
00
00
ENDCHAR
STARTCHAR rounded central/back close/close-mid
ENCODING 181
SWIDTH 500 0
DWIDTH 7 0
BBX 7 14 0 -2
BITMAP
00
00
00
00
00
66
24
24
42
42
42
3c
00
00
ENDCHAR
STARTCHAR rounded back close-mid
ENCODING 182
SWIDTH 500 0
DWIDTH 7 0
BBX 7 14 0 -2
BITMAP
00
00
00
00
00
3c
42
42
42
42
42
3c
00
00
ENDCHAR
STARTCHAR rounded back open-mid
ENCODING 183
SWIDTH 500 0
DWIDTH 7 0
BBX 7 14 0 -2
BITMAP
00
00
00
00
00
3c
42
02
02
02
42
3c
00
00
ENDCHAR
STARTCHAR rounded back open
ENCODING 184
SWIDTH 500 0
DWIDTH 7 0
BBX 7 14 0 -2
BITMAP
00
00
00
00
00
5c
62
42
42
42
62
5c
00
00
ENDCHAR
STARTCHAR This position shall not be used
ENCODING 185
SWIDTH 500 0
DWIDTH 7 0
BBX 7 14 0 -2
BITMAP
00
00
00
00
00
00
00
00
00
00
00
00
00
00
ENDCHAR
STARTCHAR rhoticity unrounded central close-mid/open-mid
ENCODING 186
SWIDTH 500 0
DWIDTH 7 0
BBX 7 14 0 -2
BITMAP
00
00
00
00
00
30
4a
0a
7e
4a
4a
30
00
00
ENDCHAR
STARTCHAR nasalized front open-mid unrounded
ENCODING 187
SWIDTH 500 0
DWIDTH 7 0
BBX 7 14 0 -2
BITMAP
00
00
32
4c
00
3c
42
40
3c
40
42
3c
00
00
ENDCHAR
STARTCHAR nasalazed back open unrounded
ENCODING 188
SWIDTH 500 0
DWIDTH 7 0
BBX 7 14 0 -2
BITMAP
00
00
32
4c
00
3a
46
42
42
42
46
3a
00
00
ENDCHAR
STARTCHAR nasalazed front open-mid rounded
ENCODING 189
SWIDTH 500 0
DWIDTH 7 0
BBX 7 14 0 -2
BITMAP
00
00
32
4c
00
36
4a
4a
4e
48
48
36
00
00
ENDCHAR
STARTCHAR nasalazed back open-mid rounded
ENCODING 190
SWIDTH 500 0
DWIDTH 7 0
BBX 7 14 0 -2
BITMAP
00
00
32
4c
00
3c
42
02
02
02
42
3c
00
00
ENDCHAR
STARTCHAR This position shall not be used
ENCODING 191
SWIDTH 500 0
DWIDTH 7 0
BBX 7 14 0 -2
BITMAP
00
00
00
00
00
00
00
00
00
00
00
00
00
00
ENDCHAR
STARTCHAR voiceless bilabial plosive
ENCODING 192
SWIDTH 500 0
DWIDTH 7 0
BBX 7 14 0 -2
BITMAP
00
00
00
00
00
5c
62
42
42
42
62
5c
40
40
ENDCHAR
STARTCHAR voiced bilabial plosive
ENCODING 193
SWIDTH 500 0
DWIDTH 7 0
BBX 7 14 0 -2
BITMAP
00
00
00
40
40
5c
62
42
42
42
62
5c
00
00
ENDCHAR
STARTCHAR voiceless dental/alveolar/postalveolar plosive
ENCODING 194
SWIDTH 500 0
DWIDTH 7 0
BBX 7 14 0 -2
BITMAP
00
00
00
10
10
7c
10
10
10
10
12
0c
00
00
ENDCHAR
STARTCHAR voiced dental/alveolar/postalveolar plosive
ENCODING 195
SWIDTH 500 0
DWIDTH 7 0
BBX 7 14 0 -2
BITMAP
00
00
00
02
02
3a
46
42
42
42
46
3a
00
00
ENDCHAR
STARTCHAR voiceless velar plosive
ENCODING 196
SWIDTH 500 0
DWIDTH 7 0
BBX 7 14 0 -2
BITMAP
00
00
00
40
40
44
48
50
60
50
48
44
00
00
ENDCHAR
STARTCHAR voiced velar plosive
ENCODING 197
SWIDTH 500 0
DWIDTH 7 0
BBX 7 14 0 -2
BITMAP
00
00
00
00
00
3a
46
42
42
46
3a
02
44
38
ENDCHAR
STARTCHAR voiceless labiodental fricative
ENCODING 198
SWIDTH 500 0
DWIDTH 7 0
BBX 7 14 0 -2
BITMAP
00
00
00
0c
10
10
7c
10
10
10
10
10
00
00
ENDCHAR
STARTCHAR voiced labiodental fricative
ENCODING 199
SWIDTH 500 0
DWIDTH 7 0
BBX 7 14 0 -2
BITMAP
00
00
00
00
00
44
44
44
28
28
10
10
00
00
ENDCHAR
STARTCHAR voiceless dental fricative
ENCODING 200
SWIDTH 500 0
DWIDTH 7 0
BBX 7 14 0 -2
BITMAP
00
00
00
10
28
44
44
7c
44
44
28
10
00
00
ENDCHAR
STARTCHAR voiced dental fricative
ENCODING 201
SWIDTH 500 0
DWIDTH 7 0
BBX 7 14 0 -2
BITMAP
00
00
28
10
28
04
3c
44
44
44
44
38
00
00
ENDCHAR
STARTCHAR voiceless alveolar fricative
ENCODING 202
SWIDTH 500 0
DWIDTH 7 0
BBX 7 14 0 -2
BITMAP
00
00
00
00
00
3c
42
40
3c
02
42
3c
00
00
ENDCHAR
STARTCHAR voiced alveolar fricative
ENCODING 203
SWIDTH 500 0
DWIDTH 7 0
BBX 7 14 0 -2
BITMAP
00
00
00
00
00
7e
04
08
10
20
40
7e
00
00
ENDCHAR
STARTCHAR voiceless postalveolar fricative
ENCODING 204
SWIDTH 500 0
DWIDTH 7 0
BBX 7 14 0 -2
BITMAP
00
00
06
08
08
08
08
08
08
08
08
08
08
30
ENDCHAR
STARTCHAR voiced postalveolar fricative
ENCODING 205
SWIDTH 500 0
DWIDTH 7 0
BBX 7 14 0 -2
BITMAP
00
00
00
00
00
7c
04
08
10
3c
02
02
42
3c
ENDCHAR
STARTCHAR voiceless palatal fricative
ENCODING 206
SWIDTH 500 0
DWIDTH 7 0
BBX 7 14 0 -2
BITMAP
00
00
00
00
00
3c
42
40
40
40
42
3c
08
10
ENDCHAR
STARTCHAR voiceless velar fricative
ENCODING 207
SWIDTH 500 0
DWIDTH 7 0
BBX 7 14 0 -2
BITMAP
00
00
00
00
00
44
44
28
10
28
44
44
00
00
ENDCHAR
STARTCHAR voiced uvular fricative
ENCODING 208
SWIDTH 500 0
DWIDTH 7 0
BBX 7 14 0 -2
BITMAP
00
00
00
00
00
42
44
48
7c
42
42
7c
00
00
ENDCHAR
STARTCHAR voiceless pharyngeal fricative
ENCODING 209
SWIDTH 500 0
DWIDTH 7 0
BBX 7 14 0 -2
BITMAP
00
00
00
40
40
5c
62
42
42
42
42
42
00
00
ENDCHAR
STARTCHAR voiced bilabial nasal
ENCODING 210
SWIDTH 500 0
DWIDTH 7 0
BBX 7 14 0 -2
BITMAP
00
00
00
00
00
68
54
54
54
54
54
44
00
00
ENDCHAR
STARTCHAR voiced dental/alveolar/postalveolar nasal
ENCODING 211
SWIDTH 500 0
DWIDTH 7 0
BBX 7 14 0 -2
BITMAP
00
00
00
00
00
5c
62
42
42
42
42
42
00
00
ENDCHAR
STARTCHAR voiced palatal nasal
ENCODING 212
SWIDTH 500 0
DWIDTH 7 0
BBX 7 14 0 -2
BITMAP
00
00
00
00
00
2c
32
22
22
22
22
22
20
40
ENDCHAR
STARTCHAR voiced velar nasal
ENCODING 213
SWIDTH 500 0
DWIDTH 7 0
BBX 7 14 0 -2
BITMAP
00
00
00
00
00
5c
62
42
42
42
42
42
02
1c
ENDCHAR
STARTCHAR voiced dental/alveolar/postalveolar trill
ENCODING 214
SWIDTH 500 0
DWIDTH 7 0
BBX 7 14 0 -2
BITMAP
00
00
00
00
00
5c
62
42
40
40
40
40
00
00
ENDCHAR
STARTCHAR voiced uvular trill
ENCODING 215
SWIDTH 500 0
DWIDTH 7 0
BBX 7 14 0 -2
BITMAP
00
00
00
00
00
7c
42
42
7c
48
44
42
00
00
ENDCHAR
STARTCHAR voiced dental/alveolar/postalveolar approximant
ENCODING 216
SWIDTH 500 0
DWIDTH 7 0
BBX 7 14 0 -2
BITMAP
00
00
00
00
00
02
02
02
02
42
46
3a
00
00
ENDCHAR
STARTCHAR voiced palatal approximant
ENCODING 217
SWIDTH 500 0
DWIDTH 7 0
BBX 7 14 0 -2
BITMAP
00
00
04
04
00
0c
04
04
04
04
04
44
44
38
ENDCHAR
STARTCHAR voiced dental/alveolar/postalveolar lateral approximant
ENCODING 218
SWIDTH 500 0
DWIDTH 7 0
BBX 7 14 0 -2
BITMAP
00
00
00
30
10
10
10
10
10
10
10
7c
00
00
ENDCHAR
STARTCHAR voiced palatal lateral approximant
ENCODING 219
SWIDTH 500 0
DWIDTH 7 0
BBX 7 14 0 -2
BITMAP
00
00
00
04
08
08
10
10
28
28
44
44
00
00
ENDCHAR
STARTCHAR voiced velar lateral approximant
ENCODING 220
SWIDTH 500 0
DWIDTH 7 0
BBX 7 14 0 -2
BITMAP
00
00
00
00
00
40
40
40
40
40
40
7e
00
00
ENDCHAR
STARTCHAR voiced labial-palatal approximant
ENCODING 221
SWIDTH 500 0
DWIDTH 7 0
BBX 7 14 0 -2
BITMAP
00
00
00
00
00
42
42
42
42
46
3a
02
02
02
ENDCHAR
STARTCHAR voiced labial-velar approximant
ENCODING 222
SWIDTH 500 0
DWIDTH 7 0
BBX 7 14 0 -2
BITMAP
00
00
00
00
00
44
54
54
54
54
54
38
00
00
ENDCHAR
STARTCHAR voceless labial-velar fricative
ENCODING 223
SWIDTH 500 0
DWIDTH 7 0
BBX 7 14 0 -2
BITMAP
00
00
00
00
00
24
24
5a
5a
42
42
42
00
00
ENDCHAR
STARTCHAR This position shall not be used
ENCODING 224
SWIDTH 500 0
DWIDTH 7 0
BBX 7 14 0 -2
BITMAP
00
00
00
00
00
00
00
00
00
00
00
00
00
00
ENDCHAR
STARTCHAR This position shall not be used
ENCODING 225
SWIDTH 500 0
DWIDTH 7 0
BBX 7 14 0 -2
BITMAP
00
00
00
00
00
00
00
00
00
00
00
00
00
00
ENDCHAR
STARTCHAR This position shall not be used
ENCODING 226
SWIDTH 500 0
DWIDTH 7 0
BBX 7 14 0 -2
BITMAP
00
00
00
00
00
00
00
00
00
00
00
00
00
00
ENDCHAR
STARTCHAR This position shall not be used
ENCODING 227
SWIDTH 500 0
DWIDTH 7 0
BBX 7 14 0 -2
BITMAP
00
00
00
00
00
00
00
00
00
00
00
00
00
00
ENDCHAR
STARTCHAR This position shall not be used
ENCODING 228
SWIDTH 500 0
DWIDTH 7 0
BBX 7 14 0 -2
BITMAP
00
00
00
00
00
00
00
00
00
00
00
00
00
00
ENDCHAR
STARTCHAR This position shall not be used
ENCODING 229
SWIDTH 500 0
DWIDTH 7 0
BBX 7 14 0 -2
BITMAP
00
00
00
00
00
00
00
00
00
00
00
00
00
00
ENDCHAR
STARTCHAR This position shall not be used
ENCODING 230
SWIDTH 500 0
DWIDTH 7 0
BBX 7 14 0 -2
BITMAP
00
00
00
00
00
00
00
00
00
00
00
00
00
00
ENDCHAR
STARTCHAR This position shall not be used
ENCODING 231
SWIDTH 500 0
DWIDTH 7 0
BBX 7 14 0 -2
BITMAP
00
00
00
00
00
00
00
00
00
00
00
00
00
00
ENDCHAR
STARTCHAR This position shall not be used
ENCODING 232
SWIDTH 500 0
DWIDTH 7 0
BBX 7 14 0 -2
BITMAP
00
00
00
00
00
00
00
00
00
00
00
00
00
00
ENDCHAR
STARTCHAR This position shall not be used
ENCODING 233
SWIDTH 500 0
DWIDTH 7 0
BBX 7 14 0 -2
BITMAP
00
00
00
00
00
00
00
00
00
00
00
00
00
00
ENDCHAR
STARTCHAR This position shall not be used
ENCODING 234
SWIDTH 500 0
DWIDTH 7 0
BBX 7 14 0 -2
BITMAP
00
00
00
00
00
00
00
00
00
00
00
00
00
00
ENDCHAR
STARTCHAR This position shall not be used
ENCODING 235
SWIDTH 500 0
DWIDTH 7 0
BBX 7 14 0 -2
BITMAP
00
00
00
00
00
00
00
00
00
00
00
00
00
00
ENDCHAR
STARTCHAR This position shall not be used
ENCODING 236
SWIDTH 500 0
DWIDTH 7 0
BBX 7 14 0 -2
BITMAP
00
00
00
00
00
00
00
00
00
00
00
00
00
00
ENDCHAR
STARTCHAR This position shall not be usedxe
ENCODING 237
SWIDTH 500 0
DWIDTH 7 0
BBX 7 14 0 -2
BITMAP
00
00
00
00
00
00
00
00
00
00
00
00
00
00
ENDCHAR
STARTCHAR This position shall not be used
ENCODING 238
SWIDTH 500 0
DWIDTH 7 0
BBX 7 14 0 -2
BITMAP
00
00
00
00
00
00
00
00
00
00
00
00
00
00
ENDCHAR
STARTCHAR This position shall not be used
ENCODING 239
SWIDTH 500 0
DWIDTH 7 0
BBX 7 14 0 -2
BITMAP
00
00
00
00
00
00
00
00
00
00
00
00
00
00
ENDCHAR
STARTCHAR primary stress
ENCODING 240
SWIDTH 500 0
DWIDTH 7 0
BBX 7 14 0 -2
BITMAP
00
00
00
08
08
08
00
00
00
00
00
00
00
00
ENDCHAR
STARTCHAR secondary stress
ENCODING 241
SWIDTH 500 0
DWIDTH 7 0
BBX 7 14 0 -2
BITMAP
00
00
00
00
00
00
00
00
00
00
00
08
08
08
ENDCHAR
STARTCHAR long
ENCODING 242
SWIDTH 500 0
DWIDTH 7 0
BBX 7 14 0 -2
BITMAP
00
00
00
00
00
38
10
00
00
00
10
38
00
00
ENDCHAR
STARTCHAR This position shall not be used
ENCODING 243
SWIDTH 500 0
DWIDTH 7 0
BBX 7 14 0 -2
BITMAP
00
00
00
00
00
00
00
00
00
00
00
00
00
00
ENDCHAR
STARTCHAR This position shall not be used
ENCODING 244
SWIDTH 500 0
DWIDTH 7 0
BBX 7 14 0 -2
BITMAP
00
00
00
00
00
00
00
00
00
00
00
00
00
00
ENDCHAR
STARTCHAR This position shall not be used
ENCODING 245
SWIDTH 500 0
DWIDTH 7 0
BBX 7 14 0 -2
BITMAP
00
00
00
00
00
00
00
00
00
00
00
00
00
00
ENDCHAR
STARTCHAR This position shall not be used
ENCODING 246
SWIDTH 500 0
DWIDTH 7 0
BBX 7 14 0 -2
BITMAP
00
00
00
00
00
00
00
00
00
00
00
00
00
00
ENDCHAR
STARTCHAR This position shall not be used
ENCODING 247
SWIDTH 500 0
DWIDTH 7 0
BBX 7 14 0 -2
BITMAP
00
00
00
00
00
00
00
00
00
00
00
00
00
00
ENDCHAR
STARTCHAR This position shall not be used
ENCODING 248
SWIDTH 500 0
DWIDTH 7 0
BBX 7 14 0 -2
BITMAP
00
00
00
00
00
00
00
00
00
00
00
00
00
00
ENDCHAR
STARTCHAR This position shall not be used
ENCODING 249
SWIDTH 500 0
DWIDTH 7 0
BBX 7 14 0 -2
BITMAP
00
00
00
00
00
00
00
00
00
00
00
00
00
00
ENDCHAR
STARTCHAR This position shall not be used
ENCODING 250
SWIDTH 500 0
DWIDTH 7 0
BBX 7 14 0 -2
BITMAP
00
00
00
00
00
00
00
00
00
00
00
00
00
00
ENDCHAR
STARTCHAR This position shall not be used
ENCODING 251
SWIDTH 500 0
DWIDTH 7 0
BBX 7 14 0 -2
BITMAP
00
00
00
00
00
00
00
00
00
00
00
00
00
00
ENDCHAR
STARTCHAR This position shall not be used
ENCODING 252
SWIDTH 500 0
DWIDTH 7 0
BBX 7 14 0 -2
BITMAP
00
00
00
00
00
00
00
00
00
00
00
00
00
00
ENDCHAR
STARTCHAR This position shall not be used
ENCODING 253
SWIDTH 500 0
DWIDTH 7 0
BBX 7 14 0 -2
BITMAP
00
00
00
00
00
00
00
00
00
00
00
00
00
00
ENDCHAR
STARTCHAR This position shall not be used
ENCODING 254
SWIDTH 500 0
DWIDTH 7 0
BBX 7 14 0 -2
BITMAP
00
00
00
00
00
00
00
00
00
00
00
00
00
00
ENDCHAR
STARTCHAR whitespace
ENCODING 255
SWIDTH 500 0
DWIDTH 7 0
BBX 7 14 0 -2
BITMAP
00
00
00
00
00
00
00
00
00
00
00
00
00
00
ENDCHAR
ENDFONT
